# xmcd
#
# Track frame offsets: 
#        150
#        15454
#        28086
#        41019
#        52780
#        67786
#        81150
#        95777
#        108431
#        121858
#        134435
#        146608
#        159072
#        172977
#        186024
#        199402
#        209947
#        230917
#        245588
#        259965
#        271969
#        284892
#        299358
#        311122
#        324740
#
# Disc length: 4524 seconds
#
# Revision: 0
# Processed by: cddbd v1.5.2PL0 Copyright (c) Steve Scherf et al.
# Submitted via: ExactAudioCopy v1.0b3
#
DISCID=8311aa19
DTITLE=Nat King Cole - 101 Hits
DYEAR=1900
DGENRE=Blues
TTITLE0=Embraceable You
TTITLE1=Route '66
TTITLE2=Besame Mucho
TTITLE3=Summertime
TTITLE4=Body And Soul
TTITLE5=What Is This Thing Called Love?
TTITLE6=Let's Pretend
TTITLE7=Our Love Is Here To Stay
TTITLE8=Vom Vim Veedle
TTITLE9=After You Get What You Want You Don't Want It
TTITLE10=Destination Moon
TTITLE11=It Could Happen To You
TTITLE12=Polka Dots And Moonbeans
TTITLE13=(I Love You) For Sentimental Reasons
TTITLE14=After You've Gone
TTITLE15=He's Funny That Way
TTITLE16=Bugle Call Rag
TTITLE17=That Ain't Right
TTITLE18=I Don't Know Why
TTITLE19=Everyone Is Sayin' Hello Again
TTITLE20=There Goes My Heart
TTITLE21=They Can't Take That Away From Me
TTITLE22=Love Is A Many Splendoured Thing
TTITLE23=For All We Know
TTITLE24=I've Got The World On A String
EXTD=
EXTT0=
EXTT1=
EXTT2=
EXTT3=
EXTT4=
EXTT5=
EXTT6=
EXTT7=
EXTT8=
EXTT9=
EXTT10=
EXTT11=
EXTT12=
EXTT13=
EXTT14=
EXTT15=
EXTT16=
EXTT17=
EXTT18=
EXTT19=
EXTT20=
EXTT21=
EXTT22=
EXTT23=
EXTT24=
PLAYORDER=
